<svg width="64" height="64" viewBox="0 0 64 64" fill="none" xmlns="http://www.w3.org/2000/svg">
<path fill-rule="evenodd" clip-rule="evenodd" d="M32 64C49.6731 64 64 49.6731 64 32C64 14.3269 49.6731 0 32 0C14.3269 0 0 14.3269 0 32C0 49.6731 14.3269 64 32 64Z" fill="#E6F0FC"/>
<path d="M16 12H48C49.6569 12 51 13.3431 51 15V41C51 42.6569 49.6569 44 48 44H16C14.3431 44 13 42.6569 13 41V15C13 13.3431 14.3431 12 16 12Z" fill="#154E84"/>
<path d="M16 14C15.4477 14 15 14.4477 15 15V41C15 41.5523 15.4477 42 16 42H48C48.5523 42 49 41.5523 49 41V15C49 14.4477 48.5523 14 48 14H16Z" fill="white"/>
<path d="M11 39C11 38.4477 11.4477 38 12 38H52C52.5523 38 53 38.4477 53 39V41C53 42.6569 51.6569 44 50 44H14C12.3431 44 11 42.6569 11 41V39Z" fill="#154E84"/>
<path d="M13 40V41C13 41.5523 13.4477 42 14 42H50C50.5523 42 51 41.5523 51 41V40H13Z" fill="#52ABE2"/>
<path d="M14 12H50C51.6569 12 53 13.3431 53 15V17C53 17.5523 52.5523 18 52 18H12C11.4477 18 11 17.5523 11 17V15C11 13.3431 12.3431 12 14 12Z" fill="#154E84"/>
<path d="M51 16V15C51 14.4477 50.5523 14 50 14H14C13.4477 14 13 14.4477 13 15V16H51Z" fill="#52ABE2"/>
<path d="M32.0013 42C32.7447 42 33.2282 42.7823 32.8957 43.4472L28.8957 51.4472C28.7263 51.786 28.3801 52 28.0013 52H24.0013C23.2579 52 22.7744 51.2177 23.1069 50.5528L27.1069 42.5528C27.2763 42.214 27.6225 42 28.0013 42H32.0013Z" fill="#154E84"/>
<path d="M28.6172 44L25.6172 50H27.3811L30.3811 44H28.6172Z" fill="#FFC200"/>
<path d="M31.9987 42C31.2553 42 30.7718 42.7823 31.1043 43.4472L35.1043 51.4472C35.2737 51.786 35.6199 52 35.9987 52H39.9987C40.7421 52 41.2256 51.2177 40.8931 50.5528L36.8931 42.5528C36.7237 42.214 36.3775 42 35.9987 42H31.9987Z" fill="#154E84"/>
<path d="M35.3828 44L38.3828 50H36.6189L33.6189 44H35.3828Z" fill="#FFC200"/>
<path d="M32.3754 31.7809C32.7406 32.0731 33.2595 32.0731 33.6248 31.7809L43.6248 23.7809C44.056 23.4359 44.1259 22.8066 43.7809 22.3753C43.4359 21.9441 42.8066 21.8742 42.3754 22.2192L33.0001 29.7194L28.6248 26.2192C28.2686 25.9343 27.7649 25.9264 27.4001 26.2L19.4001 32.2C18.9582 32.5314 18.8687 33.1582 19.2001 33.6C19.5314 34.0419 20.1582 34.1314 20.6001 33.8L27.9803 28.2649L32.3754 31.7809Z" fill="#154E84"/>
<path d="M42 24V28C42 28.5523 42.4477 29 43 29C43.5523 29 44 28.5523 44 28V23C44 22.4477 43.5523 22 43 22H38C37.4477 22 37 22.4477 37 23C37 23.5523 37.4477 24 38 24H42Z" fill="#154E84"/>
</svg>
