<svg width="64" height="64" viewBox="0 0 64 64" fill="none" xmlns="http://www.w3.org/2000/svg">
<path fill-rule="evenodd" clip-rule="evenodd" d="M32 64C49.6731 64 64 49.6731 64 32C64 14.3269 49.6731 0 32 0C14.3269 0 0 14.3269 0 32C0 49.6731 14.3269 64 32 64Z" fill="#E6F0FC"/>
<path d="M15.1056 14.5528C15.275 14.214 15.6212 14 16 14H48C48.3788 14 48.725 14.214 48.8944 14.5528L52.8944 22.5528C53.0502 22.8644 53.0326 23.2346 52.848 23.53L32.848 55.53C32.4563 56.1567 31.5437 56.1567 31.152 55.53L11.152 23.53C10.9674 23.2346 10.9498 22.8644 11.1056 22.5528L15.1056 14.5528Z" fill="#154E84"/>
<path d="M16.6173 16L13.1445 22.9456L31.9993 53.1132L50.854 22.9456L47.3813 16L16.6173 16Z" fill="white"/>
<path fill-rule="evenodd" clip-rule="evenodd" d="M24 23L32 55L12 23H24Z" fill="white"/>
<path fill-rule="evenodd" clip-rule="evenodd" d="M40 23L32 55L52 23H40Z" fill="white"/>
<path fill-rule="evenodd" clip-rule="evenodd" d="M24 23L32 54L15 23L24 23Z" fill="#52ABE2"/>
<path fill-rule="evenodd" clip-rule="evenodd" d="M40 23L32 54L49 23L40 23Z" fill="#52ABE2"/>
<path fill-rule="evenodd" clip-rule="evenodd" d="M24.9717 22.7575C24.8604 22.3123 24.4605 22 24.0016 22H12.0016C11.2162 22 10.7373 22.864 11.1536 23.53L31.1536 55.53C31.7573 56.4959 33.248 55.8625 32.9717 54.7575L24.9717 22.7575ZM13.8058 24H23.2208L29.4975 49.1066L13.8058 24Z" fill="#154E84"/>
<path fill-rule="evenodd" clip-rule="evenodd" d="M52.0039 22H40.0039C39.5451 22 39.1451 22.3123 39.0338 22.7575L31.0338 54.7575C30.7575 55.8625 32.2482 56.4959 32.8519 55.53L52.8519 23.53C53.2682 22.864 52.7894 22 52.0039 22ZM40.7847 24H50.1997L34.5081 49.1066L40.7847 24Z" fill="#154E84"/>
<path d="M15.1069 14.5528C15.2763 14.214 15.6225 14 16.0013 14H48.0013C48.3801 14 48.7263 14.214 48.8957 14.5528L52.8957 22.5528C53.2282 23.2177 52.7447 24 52.0013 24H12.0013C11.2579 24 10.7744 23.2177 11.1069 22.5528L15.1069 14.5528Z" fill="#154E84"/>
<path d="M16.6172 16L13.6172 22H50.3811L47.3811 16L16.6172 16Z" fill="#FFC200"/>
<path d="M24.7052 23.7071C24.3147 24.0976 23.6815 24.0976 23.291 23.7071L15.291 15.7071C14.661 15.0771 15.1072 14 15.9981 14H47.9981C48.889 14 49.3352 15.0771 48.7052 15.7071L40.7052 23.7071C40.3147 24.0976 39.6815 24.0976 39.291 23.7071L31.9981 16.4142L24.7052 23.7071Z" fill="#154E84"/>
<path d="M18.4141 16L23.9998 21.5858L29.5856 16H18.4141Z" fill="white"/>
<path d="M34.4141 16L39.9998 21.5858L45.5856 16H34.4141Z" fill="white"/>
</svg>
