<svg width="64" height="64" viewBox="0 0 64 64" fill="none" xmlns="http://www.w3.org/2000/svg">
<path fill-rule="evenodd" clip-rule="evenodd" d="M32 64C49.6731 64 64 49.6731 64 32C64 14.3269 49.6731 0 32 0C14.3269 0 0 14.3269 0 32C0 49.6731 14.3269 64 32 64Z" fill="#E6F0FC"/>
<path fill-rule="evenodd" clip-rule="evenodd" d="M12 18.666H52.4444C53.549 18.666 54.4444 19.5614 54.4444 20.666V51.9993C44.4424 49.2833 42.8239 47.5549 32.2222 47.5549C21.6206 47.5549 20.002 49.2833 10 51.9993V20.666C10 19.5614 10.8954 18.666 12 18.666Z" fill="white"/>
<path fill-rule="evenodd" clip-rule="evenodd" d="M54.4444 20.9993C54.4444 19.8948 53.549 18.9993 52.4444 18.9993H12C10.8954 18.9993 10 19.8948 10 20.9993V20.666C10 19.5614 10.8954 18.666 12 18.666H52.4444C53.549 18.666 54.4444 19.5614 54.4444 20.666V20.9993V20.9993ZM54.4444 48.9993V51.9993C44.4424 49.2833 42.8239 47.5549 32.2222 47.5549C21.6206 47.5549 20.002 49.2833 10 51.9993V48.9993C20.002 46.5549 21.6206 44.9993 32.2222 44.9993C42.8239 44.9993 44.4424 46.5549 54.4444 48.9993Z" fill="#52ABE2"/>
<path d="M44.1246 47.8736C40.6291 46.9403 37.381 46.5549 32.2222 46.5549C27.0634 46.5549 23.8154 46.9403 20.3198 47.8736C19.3698 48.1272 14.1763 49.7584 11 50.6782V20.666C11 20.1137 11.4477 19.666 12 19.666H16.6678V17.666H12C10.3431 17.666 9 19.0092 9 20.666V53.3071L10.2621 52.9644C13.1161 52.1894 19.8005 50.0823 20.8357 49.8059C24.1543 48.9199 27.2302 48.5549 32.2222 48.5549C37.2143 48.5549 40.2902 48.9199 43.6087 49.8059C44.644 50.0823 51.3284 52.1894 54.1824 52.9644L55.4444 53.3071V20.666C55.4444 19.0092 54.1013 17.666 52.4444 17.666H47.8187V19.666H52.4444C52.9967 19.666 53.4444 20.1137 53.4444 20.666V50.6782C50.2681 49.7584 45.0747 48.1272 44.1246 47.8736Z" fill="#154E84"/>
<path fill-rule="evenodd" clip-rule="evenodd" d="M16.668 12C22.6293 12 27.8145 13.4815 32.2235 16.4444C36.6944 13.4815 41.8796 12 47.7791 12V43.1111C41.8993 43.1111 36.7141 44.5926 32.2235 47.5556C27.7776 44.5926 22.5924 43.1111 16.668 43.1111C16.668 43.1111 16.668 12 16.668 12Z" fill="white"/>
<path fill-rule="evenodd" clip-rule="evenodd" d="M48.7791 11H47.7791C41.9296 11 36.7382 12.4169 32.2271 15.252C27.7697 12.4164 22.5757 11 16.668 11H15.668V27.5556V38.25V44.1111H16.668C22.4002 44.1111 27.392 45.5373 31.6689 48.3877L32.2208 48.7554L32.7743 48.3902C37.0974 45.5378 42.0907 44.1111 47.7791 44.1111H48.7791V21.8438V14.8711V12V11ZM17.668 38.25V27.5556V13.0145C23.0152 13.1709 27.6739 14.5918 31.6657 17.2744L32.2197 17.6467L32.776 17.278C36.8255 14.5942 41.4862 13.1728 46.7791 13.0148V38.25V42.1252C41.3518 42.2789 36.4946 43.692 32.2261 46.3652C27.9924 43.6905 23.1334 42.2777 17.668 42.125V38.25Z" fill="#154E84"/>
<path d="M31.2227 16.4453V47.5564H33.2227V16.4453H31.2227Z" fill="#154E84"/>
<path d="M27.5459 21.891C25.9095 21.0567 23.6754 20.4184 20.8498 19.9888C20.3038 19.9058 19.9285 19.3958 20.0115 18.8498C20.0945 18.3038 20.6044 17.9285 21.1504 18.0115C24.1715 18.4708 26.604 19.1658 28.4544 20.1093C28.9464 20.3601 29.1419 20.9623 28.891 21.4544C28.6402 21.9464 28.0379 22.1419 27.5459 21.891Z" fill="#FFC200"/>
<path d="M36.4544 21.891C38.0908 21.0567 40.3249 20.4184 43.1505 19.9888C43.6965 19.9058 44.0719 19.3958 43.9889 18.8498C43.9058 18.3038 43.3959 17.9285 42.8499 18.0115C39.8289 18.4708 37.3963 19.1658 35.546 20.1093C35.054 20.3601 34.8585 20.9623 35.1093 21.4544C35.3602 21.9464 35.9624 22.1419 36.4544 21.891Z" fill="#FFC200"/>
<path d="M27.5459 29.891C25.9095 29.0567 23.6754 28.4184 20.8498 27.9888C20.3038 27.9058 19.9285 27.3958 20.0115 26.8498C20.0945 26.3038 20.6044 25.9285 21.1504 26.0115C24.1715 26.4708 26.604 27.1658 28.4544 28.1093C28.9464 28.3601 29.1419 28.9623 28.891 29.4544C28.6402 29.9464 28.0379 30.1419 27.5459 29.891Z" fill="#FFC200"/>
<path d="M36.4544 29.891C38.0908 29.0567 40.3249 28.4184 43.1505 27.9888C43.6965 27.9058 44.0719 27.3958 43.9889 26.8498C43.9058 26.3038 43.3959 25.9285 42.8499 26.0115C39.8289 26.4708 37.3963 27.1658 35.546 28.1093C35.054 28.3601 34.8585 28.9623 35.1093 29.4544C35.3602 29.9464 35.9624 30.1419 36.4544 29.891Z" fill="#FFC200"/>
<path d="M27.5459 37.891C25.9095 37.0567 23.6754 36.4184 20.8498 35.9888C20.3038 35.9058 19.9285 35.3958 20.0115 34.8498C20.0945 34.3038 20.6044 33.9285 21.1504 34.0115C24.1715 34.4708 26.604 35.1658 28.4544 36.1093C28.9464 36.3601 29.1419 36.9623 28.891 37.4544C28.6402 37.9464 28.0379 38.1419 27.5459 37.891Z" fill="#FFC200"/>
<path d="M36.4544 37.891C38.0908 37.0567 40.3249 36.4184 43.1505 35.9888C43.6965 35.9058 44.0719 35.3958 43.9889 34.8498C43.9058 34.3038 43.3959 33.9285 42.8499 34.0115C39.8289 34.4708 37.3963 35.1658 35.546 36.1093C35.054 36.3601 34.8585 36.9623 35.1093 37.4544C35.3602 37.9464 35.9624 38.1419 36.4544 37.891Z" fill="#FFC200"/>
</svg>
