<svg width="54" height="56" viewBox="0 0 54 56" fill="none" xmlns="http://www.w3.org/2000/svg">
<path d="M1 27C1 12.6406 12.6406 1 27 1C41.3594 1 53 12.6406 53 27V29C53 43.3594 41.3594 55 27 55C12.6406 55 1 43.3594 1 29V27Z" stroke="white" stroke-width="2"/>
<path d="M28.7773 23.0938C29.0898 23.4062 29.0585 23.875 28.7773 24.1875L24.996 27.75H33.9648C34.4023 27.75 34.7148 28.0938 34.7148 28.5V29.5C34.7148 29.9375 34.4023 30.25 33.9648 30.25H24.996L28.7773 33.8438C29.0585 34.1562 29.0585 34.625 28.7773 34.9375L28.0898 35.625C27.7773 35.9062 27.3085 35.9062 27.0273 35.625L20.9335 29.5312C20.6523 29.25 20.6523 28.7812 20.9335 28.4688L27.0273 22.4062C27.3085 22.125 27.7773 22.125 28.0898 22.4062L28.7773 23.0938Z" fill="white"/>
</svg>
