<svg width="190" height="32" viewBox="0 0 190 32" fill="none" xmlns="http://www.w3.org/2000/svg">
<path fill-rule="evenodd" clip-rule="evenodd" d="M57.7598 27.3501H57.7598L57.7597 27.3501L57.7595 27.3501C57.2071 27.4067 56.6462 27.4642 56.0719 27.5349L51.4639 14.204V28.1022C50.0239 28.244 48.7279 28.4331 47.3359 28.6695V3.18945H51.1759L56.4079 17.6549V3.18945H60.4879V27.0149C59.5864 27.1629 58.6849 27.2553 57.7598 27.3501ZM71.2916 12.5005L71.2918 12.5005L71.2919 12.5005C72.2456 12.4774 73.1771 12.4549 73.8799 12.4549V16.4258C72.1039 16.4258 69.9919 16.4258 68.4559 16.5204V22.4295C69.2038 22.3844 69.9566 22.3345 70.7127 22.2844L70.7128 22.2844L70.7129 22.2844L70.713 22.2844H70.713H70.713H70.713H70.7131H70.7131H70.7131H70.7131C72.3346 22.1769 73.9713 22.0685 75.6079 22.004V25.8331L64.4239 26.684V3.18945H75.6079V7.16036H68.4559V12.5495C69.2667 12.5495 70.2913 12.5247 71.2915 12.5005L71.2915 12.5005H71.2916H71.2916ZM86.4079 7.20763H90.5839C90.5839 7.20763 90.5839 3.18945 90.6319 3.18945H78.1999V7.20763H82.3759V25.5495C83.6719 25.5022 85.0639 25.5022 86.4079 25.5022V7.20763ZM97.1599 12.2658H102.68V16.2367H97.1599V25.2658H93.1759V3.18945H104.456V7.16036H97.1599V12.2658ZM115.218 21.9577C113.83 21.8773 112.431 21.7963 111.032 21.7676V3.18945H107V25.5022C110.696 25.5967 114.296 25.7858 117.896 26.0222V22.0985C117.01 22.0614 116.116 22.0097 115.218 21.9577ZM122.666 26.393L122.666 26.393C123.531 26.4445 124.41 26.4968 125.288 26.5895V3.18945H121.304V26.3058C121.753 26.3386 122.208 26.3657 122.666 26.393ZM137.816 15.2913L142.952 3.18945H138.488L135.656 9.85491L133.016 3.18945H128.696L133.4 15.1495L128.216 26.7785C128.792 26.8542 129.368 26.9147 129.944 26.9752C130.808 27.066 131.672 27.1567 132.536 27.2985L135.512 20.5385L138.392 27.9131C138.93 27.9959 139.462 28.0844 139.992 28.1727C140.976 28.3365 141.954 28.4993 142.952 28.6222L137.816 15.2913Z" fill="white"/>
</svg>
