<svg width="110" height="32" viewBox="0 0 110 32" fill="none" xmlns="http://www.w3.org/2000/svg">
<path d="M19.7008 3.19998C19.263 1.7655 17.7306 0.993084 16.3078 1.43446C14.8849 1.87584 14.1187 3.42067 14.5565 4.85515L21.5615 26.5931C22.054 27.9172 23.4769 28.6896 24.8451 28.3034C26.268 27.862 27.1436 26.3724 26.7058 24.9379C26.7058 24.8827 19.7008 3.19998 19.7008 3.19998Z" fill="white"/>
<path d="M8.86485 6.78592C8.42704 5.35144 6.8947 4.57902 5.47181 5.0204C4.04893 5.46178 3.28276 7.00661 3.72057 8.44109L10.7255 30.179C11.2181 31.5032 12.641 32.2756 14.0091 31.8894C15.432 31.448 16.3076 29.9583 15.8698 28.5238C15.8698 28.4687 8.86485 6.78592 8.86485 6.78592Z" fill="white"/>
<path d="M28.5696 21.2408C29.9925 20.7994 30.7587 19.2546 30.3209 17.8201C29.883 16.3856 28.3507 15.6132 26.9278 16.0546L5.3109 23.0615C3.99747 23.558 3.2313 24.9925 3.61438 26.3718C4.05219 27.8063 5.52981 28.6891 6.95269 28.2477C7.06214 28.2477 28.5696 21.2408 28.5696 21.2408Z" fill="white"/>
<path d="M9.79808 27.3653C11.221 26.9239 13.0269 26.317 14.9424 25.655C14.5045 24.2205 13.9026 22.3998 13.2458 20.4688L8.10156 22.1791L9.79808 27.3653Z" fill="white"/>
<path d="M20.6887 23.7784C22.6589 23.1163 24.4648 22.5646 25.833 22.068C25.3952 20.6336 24.7932 18.8129 24.1365 16.8818L18.9922 18.5922L20.6887 23.7784Z" fill="white"/>
<path d="M25.011 10.2613C26.4339 9.81992 27.2 8.27509 26.7622 6.84061C26.3244 5.40612 24.7921 4.63371 23.3692 5.07509L1.80699 12.1372C0.493562 12.6337 -0.272607 14.0682 0.110477 15.4475C0.548288 16.9372 2.0259 17.8199 3.44879 17.3234C3.50351 17.3234 25.011 10.2613 25.011 10.2613Z" fill="white"/>
<path d="M6.29417 16.3858C7.71706 15.9444 9.52303 15.3375 11.4385 14.6755C10.7817 12.6893 10.2345 10.8686 9.74193 9.48926L4.59766 11.1996L6.29417 16.3858Z" fill="white"/>
<path d="M17.1301 12.8546C19.1003 12.1925 20.9062 11.6408 22.2744 11.1442C21.6177 9.15801 21.0704 7.33732 20.5779 5.95801L15.4336 7.66835L17.1301 12.8546Z" fill="white"/>
<path d="M50.4042 8.93741C51.3345 9.37879 51.444 9.65465 50.6778 11.0891C49.9116 12.5788 49.7475 12.634 48.7624 12.2478C47.5584 11.7512 46.0808 11.365 45.0957 11.365C43.5086 11.365 42.4688 11.9167 42.4688 12.7995C42.4688 15.6684 51.6081 14.1236 51.6081 20.3029C51.6081 23.3926 48.9813 25.434 45.041 25.434C42.9614 25.434 40.3892 24.7167 38.638 23.834C37.7624 23.3926 37.7076 23.1167 38.4738 21.6271C39.1305 20.3581 39.3494 20.1926 40.2798 20.5788C41.8121 21.2409 43.6728 21.7374 44.9863 21.7374C46.4639 21.7374 47.3942 21.1305 47.3942 20.2478C47.3942 17.434 38.0907 18.7581 38.0907 12.7995C38.0907 9.65465 40.7176 7.50293 44.6032 7.50293C46.4639 7.66845 48.8171 8.22017 50.4042 8.93741Z" fill="white"/>
<path d="M57.792 1.65469V24.6064C57.792 24.9374 57.4089 25.3237 56.9164 25.3237H54.5084C53.9612 25.3237 53.6328 24.9374 53.6328 24.6064V1.65469C53.6328 0.496065 53.9612 0.440892 55.7124 0.440892C57.6826 0.38572 57.792 0.551237 57.792 1.65469Z" fill="white"/>
<path fill-rule="evenodd" clip-rule="evenodd" d="M74.7567 24.3862V14.5103C74.7567 10.2069 71.8562 7.66895 67.2592 7.66895C65.1796 7.66895 62.8811 8.33101 61.2393 9.43446C60.3637 9.98619 60.3637 10.262 61.2393 11.6414C62.1697 13.0207 62.3339 13.0758 63.2095 12.5793C64.304 11.9172 65.6722 11.4758 66.8214 11.4758C69.2294 11.4758 70.6523 12.5793 70.6523 14.4V15.5586C69.503 15.062 68.0801 14.7862 66.5478 14.7862C62.4433 14.7862 59.7617 16.9931 59.7617 20.3034C59.7617 23.3931 62.1697 25.4896 65.7269 25.4896C67.5876 25.4896 69.4483 24.7172 70.707 23.2827L70.6523 24.331C70.5975 24.8827 70.9806 25.2689 71.5279 25.2689H73.8811C74.3737 25.2689 74.7567 24.9379 74.7567 24.3862ZM66.2194 22.1793C64.7418 22.1793 63.7567 21.4069 63.7567 20.2483C63.7567 18.8138 65.2344 17.7103 67.4234 17.7103C68.4632 17.7103 69.6672 17.8758 70.5975 18.262V19.8069C69.6672 21.2965 68.0254 22.1793 66.2194 22.1793Z" fill="white"/>
<path d="M91.0101 8.99249C91.8858 9.48904 91.8858 9.7649 90.9554 11.2546C90.0798 12.6339 89.9156 12.7442 88.9305 12.2477C88.2191 11.8615 87.0151 11.5304 86.0848 11.5304C83.0748 11.5304 81.1047 13.5166 81.1047 16.5511C81.1047 19.6959 83.0748 21.7925 86.0848 21.7925C87.1246 21.7925 88.438 21.4063 89.2589 20.9097C90.1345 20.4132 90.2987 20.4132 91.229 21.7925C92.0499 23.0615 92.0499 23.3373 91.2838 23.889C89.9703 24.827 87.836 25.5442 85.9753 25.5442C80.448 25.5442 76.7266 21.958 76.7266 16.6063C76.7266 11.2546 80.448 7.72353 86.03 7.72353C87.7813 7.66835 89.7514 8.22008 91.0101 8.99249Z" fill="white"/>
<path d="M109.124 23.1163C109.836 23.9991 109.562 24.3301 107.811 24.937C106.059 25.5991 105.786 25.5439 105.184 24.7163L100.204 18.0404L97.96 20.1922V24.5508C97.96 24.8818 97.5769 25.268 97.0844 25.268H94.6764C94.1291 25.268 93.8008 24.8818 93.8008 24.5508V1.65422C93.8008 0.495602 94.1291 0.44043 95.8804 0.44043C97.9053 0.44043 97.96 0.605947 97.96 1.65422V14.6749L104.746 8.1094C105.512 7.39215 105.895 7.44733 107.263 8.33008C108.741 9.26802 108.851 9.54388 108.139 10.2611L103.104 15.2266L109.124 23.1163Z" fill="white"/>
</svg>
