<svg width="96" height="25" viewBox="0 0 96 25" fill="none" xmlns="http://www.w3.org/2000/svg">
<path fill-rule="evenodd" clip-rule="evenodd" d="M14.0165 1.83962C14.0165 2.83019 13.1525 3.67925 12.1445 3.67925C11.1365 3.67925 10.2725 2.83019 10.2725 1.83962C10.2725 0.849057 11.1365 0 12.1445 0C13.1525 0 14.0165 0.849057 14.0165 1.83962ZM12.1445 5.18868C11.0405 5.18868 10.1765 6.03774 10.1765 7.12264C10.1765 8.20755 11.0405 9.0566 12.1445 9.0566C13.2485 9.0566 14.1125 8.20755 14.1125 7.12264C14.1125 5.99057 13.2485 5.18868 12.1445 5.18868ZM10.1285 12.3113C10.1285 11.2264 11.0405 10.3302 12.1445 10.3302C13.2485 10.3302 14.2085 11.2264 14.1605 12.3113C14.1605 13.3962 13.2485 14.2925 12.1445 14.2925C11.0405 14.2925 10.1285 13.3962 10.1285 12.3113ZM12.1445 15.566C11.0405 15.566 10.1765 16.4151 10.1765 17.5C10.1765 18.5849 11.0405 19.434 12.1445 19.434C13.2485 19.434 14.1125 18.5849 14.1125 17.5C14.1125 16.4623 13.2485 15.566 12.1445 15.566ZM10.2725 22.7358C10.2725 21.7453 11.1365 20.8962 12.1445 20.8962C13.2005 20.8962 14.0165 21.7453 14.0165 22.7358C14.0165 23.7264 13.1525 24.5755 12.1445 24.5755C11.1365 24.5755 10.2725 23.7264 10.2725 22.7358ZM17.3285 4.95283C16.1285 4.95283 15.1205 5.9434 15.1205 7.12264C15.1205 8.30189 16.1285 9.29245 17.3285 9.29245C18.5285 9.29245 19.5365 8.30189 19.5365 7.12264C19.5365 5.9434 18.5285 4.95283 17.3285 4.95283ZM15.0245 12.3585C15.0245 11.0849 16.0805 10.0943 17.3285 10.0943C18.5765 10.0943 19.6325 11.0849 19.6325 12.3585C19.6325 13.6321 18.5765 14.6226 17.3285 14.6226C16.0325 14.6226 15.0245 13.5849 15.0245 12.3585ZM17.3285 15.3302C16.1285 15.3302 15.1205 16.3208 15.1205 17.5C15.1205 18.6792 16.1285 19.6698 17.3285 19.6698C18.5285 19.6698 19.5365 18.6792 19.5365 17.5C19.5365 16.3208 18.5285 15.3302 17.3285 15.3302ZM20.1125 12.3113C20.1125 10.8962 21.3125 9.81132 22.6565 9.81132C24.0005 9.81132 25.1045 10.8962 25.2005 12.3113C25.2005 13.7264 24.0965 14.8113 22.6565 14.8113C21.2165 14.8113 20.1125 13.6321 20.1125 12.3113ZM6.91253 5.42453C6.00053 5.42453 5.23253 6.17924 5.23253 7.07547C5.23253 7.9717 6.00053 8.72641 6.91253 8.72641C7.82453 8.72641 8.59253 7.9717 8.59253 7.07547C8.59253 6.17924 7.87253 5.42453 6.91253 5.42453ZM5.13653 12.3113C5.13653 11.3208 5.90453 10.566 6.91253 10.566C7.92053 10.566 8.68853 11.3208 8.68853 12.3113C8.68853 13.3019 7.92053 14.0566 6.91253 14.0566C5.90453 14.0566 5.13653 13.3019 5.13653 12.3113ZM6.91253 15.8019C6.00053 15.8019 5.23253 16.5566 5.23253 17.4528C5.23253 18.3491 6.00053 19.1038 6.91253 19.1038C7.82453 19.1038 8.59253 18.3491 8.59253 17.4528C8.59253 16.5566 7.87253 15.8019 6.91253 15.8019ZM0.144531 12.3585C0.144531 11.5094 0.816531 10.8491 1.68053 10.8491C2.54453 10.8491 3.21653 11.5094 3.21653 12.3585C3.21653 13.2075 2.54453 13.8679 1.68053 13.8679C0.816531 13.8679 0.144531 13.2075 0.144531 12.3585Z" fill="white"/>
<path d="M44.3047 9.10352C44.1127 9.10352 43.9688 9.29219 43.9688 9.4337V22.4997C43.9688 22.6884 44.1608 22.8299 44.3047 22.8299H45.8887C46.0807 22.8299 46.2248 22.6413 46.2248 22.4997V9.4337C46.2248 9.24503 46.0327 9.10352 45.8887 9.10352H44.3047V9.10352Z" fill="white"/>
<path d="M45.1688 3.58496C44.3048 3.58496 43.6328 4.24534 43.6328 5.09439C43.6328 5.94345 44.3048 6.60383 45.1688 6.60383C46.0328 6.60383 46.7048 5.94345 46.7048 5.09439C46.7048 4.24534 45.9848 3.58496 45.1688 3.58496Z" fill="white"/>
<path d="M78.3829 9.10352C78.1909 9.10352 78.0469 9.29219 78.0469 9.4337V22.4997C78.0469 22.6884 78.2389 22.8299 78.3829 22.8299H79.9669C80.1589 22.8299 80.3029 22.6413 80.3029 22.4997V9.4337C80.3029 9.24503 80.1109 9.10352 79.9669 9.10352H78.3829V9.10352Z" fill="white"/>
<path d="M79.1493 3.58496C78.2853 3.58496 77.6133 4.24534 77.6133 5.09439C77.6133 5.94345 78.2853 6.60383 79.1493 6.60383C80.0133 6.60383 80.6853 5.94345 80.6853 5.09439C80.6853 4.24534 80.0133 3.58496 79.1493 3.58496Z" fill="white"/>
<path fill-rule="evenodd" clip-rule="evenodd" d="M95.3571 21.4C95.3471 21.4459 95.3229 21.5014 95.2641 21.557C95.2641 21.6513 95.1641 21.7456 94.9641 21.6985L95.0406 21.7867C95.0307 21.7906 95.0218 21.7928 95.0141 21.7928H94.8641L95.2141 22.2173H95.4141L95.0406 21.7867C95.0573 21.7803 95.0769 21.7695 95.0984 21.7577C95.1469 21.7308 95.2055 21.6985 95.2641 21.6985C95.3641 21.6985 95.3641 21.6041 95.3641 21.5098C95.3641 21.471 95.3641 21.4322 95.3571 21.4ZM94.6641 21.7928V21.6513V21.2268H95.0141C95.1141 21.2268 95.2141 21.2268 95.2641 21.3211C95.3229 21.3211 95.3471 21.3538 95.3571 21.4C95.3641 21.3679 95.3641 21.3405 95.3641 21.3211V21.2268C95.3641 21.2268 95.3641 21.1324 95.2641 21.1324C95.2641 21.1324 95.1641 21.0381 95.0641 21.0381H94.8641H94.4141V22.2173H94.6141V21.7928H94.6641Z" fill="#8C98A4"/>
<path fill-rule="evenodd" clip-rule="evenodd" d="M93.793 21.6513C93.793 21.0853 94.321 20.5664 94.897 20.5664C95.521 20.5664 96.001 21.0381 96.001 21.6513C96.001 22.2173 95.473 22.7362 94.897 22.7362C94.321 22.7362 93.793 22.2173 93.793 21.6513ZM93.889 21.6513C93.889 22.2173 94.321 22.6419 94.897 22.6419C95.425 22.6419 95.905 22.2173 95.905 21.6513C95.905 21.0853 95.473 20.6607 94.897 20.6607C94.321 20.6607 93.889 21.0853 93.889 21.6513Z" fill="#8C98A4"/>
<path d="M57.5042 11.2259C57.6962 11.2259 57.8402 11.0372 57.8402 10.8957V9.33909C57.8402 9.15041 57.6482 9.0089 57.5042 9.0089H54.0962V4.0089C54.0962 3.82022 53.9042 3.67871 53.7602 3.67871H52.1762C51.9842 3.67871 51.8402 3.86739 51.8402 4.0089V9.0089H50.1602C49.9682 9.0089 49.8242 9.19758 49.8242 9.33909V10.8957C49.8242 11.0844 50.0162 11.2259 50.1602 11.2259H51.8402V18.7731C51.8402 21.0844 53.4242 22.5938 55.7282 22.5938H57.4082C57.6002 22.5938 57.7442 22.4051 57.7442 22.2636V20.707C57.7442 20.5183 57.5522 20.3768 57.4082 20.3768H55.9682C54.8642 20.3768 54.0962 19.6221 54.0962 18.4429V11.1787H57.5042V11.2259V11.2259Z" fill="white"/>
<path d="M91.1995 11.2259C91.3915 11.2259 91.5355 11.0372 91.5355 10.8957V9.33909C91.5355 9.15041 91.3435 9.0089 91.1995 9.0089H87.7915V4.0089C87.7915 3.82022 87.5995 3.67871 87.4555 3.67871H85.8715C85.6795 3.67871 85.5355 3.86739 85.5355 4.0089V9.0089H83.8555C83.6635 9.0089 83.5195 9.19758 83.5195 9.33909V10.8957C83.5195 11.0844 83.7115 11.2259 83.8555 11.2259H85.5355V18.7731C85.5355 21.0844 87.1195 22.5938 89.4235 22.5938H91.1035C91.2955 22.5938 91.4395 22.4051 91.4395 22.2636V20.707C91.4395 20.5183 91.2475 20.3768 91.1035 20.3768H89.5675C88.4635 20.3768 87.6955 19.6221 87.6955 18.4429V11.1787H91.1515L91.1995 11.2259V11.2259Z" fill="white"/>
<path d="M34.223 11.2263V22.3584C34.223 22.5471 34.415 22.6886 34.559 22.6886H36.143C36.335 22.6886 36.479 22.4999 36.479 22.3584V11.2263H40.223C40.415 11.2263 40.559 11.0377 40.559 10.8962V9.33955C40.559 9.15087 40.367 9.00936 40.223 9.00936H36.479V6.08483C36.479 4.90559 37.343 4.1037 38.351 4.1037H40.223C40.415 4.1037 40.559 3.91502 40.559 3.77351V2.21691C40.559 2.02823 40.367 1.88672 40.223 1.88672H38.447C36.095 1.88672 34.223 3.82068 34.223 6.03766V9.00936H32.543C32.351 9.00936 32.207 9.19804 32.207 9.33955V10.8962C32.207 11.0848 32.399 11.2263 32.543 11.2263H34.223V11.2263Z" fill="white"/>
<path fill-rule="evenodd" clip-rule="evenodd" d="M68.1112 8.58444C69.9832 8.58444 71.7592 9.33916 73.0072 10.6599C74.2552 11.9807 74.9272 13.8203 74.9272 15.8486C74.9272 20.8958 71.4232 23.1599 68.0632 23.1599C64.6552 23.1599 61.1992 20.9429 61.1992 15.8486V2.12218C61.1992 1.98067 61.3432 1.79199 61.5352 1.79199H63.1192C63.2632 1.79199 63.4552 1.9335 63.4552 2.12218V10.4241C64.5592 9.33916 66.3352 8.58444 68.1112 8.58444ZM63.4072 15.8958C63.4072 18.3958 64.6552 21.0373 68.0632 21.0373C71.4712 21.0373 72.6712 18.3958 72.7192 15.8958C72.7192 12.8769 70.8472 10.8014 68.0632 10.8014C65.2792 10.8014 63.4072 12.8297 63.4072 15.8958Z" fill="white"/>
</svg>
