<svg width="190" height="33" viewBox="0 0 190 33" fill="none" xmlns="http://www.w3.org/2000/svg">
<path d="M70.6251 12.1257H59.4334V15.4257H67.392C66.994 20.0757 63.1142 22.1257 59.4831 22.1257C54.8075 22.1257 50.7287 18.4257 50.7287 13.2757C50.7287 8.22571 54.6085 4.32571 59.4831 4.32571C63.2635 4.32571 65.4521 6.72571 65.4521 6.72571L67.7401 4.32571C67.7401 4.32571 64.7557 1.02571 59.3339 1.02571C52.4199 0.975709 47.0977 6.82571 47.0977 13.1757C47.0977 19.3757 52.1215 25.4257 59.5329 25.4257C66.049 25.4257 70.8241 20.9757 70.8241 14.3257C70.8241 12.9257 70.6251 12.1257 70.6251 12.1257V12.1257Z" fill="white"/>
<path fill-rule="evenodd" clip-rule="evenodd" d="M71.8672 17.4758C71.8672 13.2758 75.1501 9.67578 79.7263 9.67578C83.5066 9.67578 87.5853 12.3758 87.6351 17.5758C87.6351 22.1758 84.1532 25.4258 79.8257 25.4258C75.0506 25.4258 71.8672 21.7758 71.8672 17.4758ZM84.1532 17.5758C84.1532 14.6758 82.0143 12.8258 79.776 12.8258C77.2392 12.8258 75.2993 14.8258 75.3491 17.5258C75.3491 20.3258 77.2889 22.3258 79.776 22.3258C82.0641 22.3258 84.1532 20.4758 84.1532 17.5758Z" fill="white"/>
<path fill-rule="evenodd" clip-rule="evenodd" d="M88.9805 17.4758C88.9805 13.2758 92.2634 9.67578 96.8395 9.67578C100.62 9.67578 104.699 12.3758 104.748 17.5758C104.748 22.1758 101.266 25.4258 96.939 25.4258C92.1639 25.4258 88.9805 21.7758 88.9805 17.4758ZM101.266 17.5758C101.266 14.6758 99.1276 12.8258 96.8893 12.8258C94.3525 12.8258 92.4126 14.8258 92.4623 17.5258C92.4623 20.3258 94.4022 22.3258 96.8893 22.3258C99.1774 22.3258 101.266 20.4758 101.266 17.5758Z" fill="white"/>
<path fill-rule="evenodd" clip-rule="evenodd" d="M106.09 17.5756C106.09 13.4256 109.373 9.72559 113.601 9.72559C115.441 9.72559 116.834 10.4256 117.729 11.5256V10.1756H121.012V24.3256C121.012 29.8756 117.829 32.5256 113.65 32.5256C109.82 32.5256 107.682 30.1756 106.637 27.9256L109.671 26.6756C110.119 27.6756 111.313 29.4756 113.7 29.4756C116.187 29.4756 117.829 27.8256 117.829 25.1256V23.5756C116.884 24.6256 115.74 25.4756 113.501 25.4756C109.92 25.4756 106.09 22.2756 106.09 17.5756ZM118.077 17.6256C118.077 14.6256 115.939 12.8256 113.899 12.8256C111.711 12.8256 109.572 14.5756 109.522 17.6756C109.522 20.5256 111.611 22.3756 113.849 22.3756C115.988 22.3756 118.077 20.7256 118.077 17.6256Z" fill="white"/>
<path fill-rule="evenodd" clip-rule="evenodd" d="M128.426 17.5258C128.426 12.8258 131.758 9.67578 135.738 9.67578C138.822 9.67578 141.159 11.7758 142.204 14.1758L142.751 15.4758L132.256 19.8758C132.902 21.0758 133.897 22.2758 136.086 22.2758C138.026 22.2758 139.22 21.2258 139.916 20.1258L142.652 21.9758C141.458 23.5758 139.369 25.4258 136.086 25.4258C132.156 25.4258 128.426 22.4758 128.426 17.5258ZM138.772 14.4258C138.274 13.4758 137.28 12.7258 135.837 12.7258C133.599 12.7258 131.41 15.0758 131.808 17.3758L138.772 14.4258Z" fill="white"/>
<path d="M123.449 24.9754H126.881V1.77539H123.449V24.9754Z" fill="white"/>
</svg>
