<svg width="190" height="32" viewBox="0 0 190 32" fill="none" xmlns="http://www.w3.org/2000/svg">
<path d="M62.0448 6.73251V18.0139C62.0448 21.7744 60.4209 23.3372 56.6 23.3372C52.7791 23.3372 51.1552 21.7744 51.1552 18.0139V6.24414H47.4776C47.1433 6.24414 47 6.39065 47 6.73251V18.1604C47 24.4604 50.9164 26.6581 56.6 26.6581C62.2836 26.6581 66.2 24.4604 66.2 18.1604V6.24414H62.5224C62.2358 6.24414 62.0448 6.39065 62.0448 6.73251" fill="white"/>
<path d="M115.393 9.51623C115.68 9.51623 115.823 9.41856 115.918 9.17437L116.969 6.48833C117.017 6.34182 116.969 6.24414 116.826 6.24414H102.02C100.635 6.24414 100.109 6.68368 100.109 7.66042V25.1441C100.109 25.9744 100.491 26.3162 101.59 26.3162H115.393C115.68 26.3162 115.823 26.2186 115.918 25.9744L116.969 23.2883C117.017 23.1418 116.969 23.0441 116.826 23.0441H104.169V19.479C104.169 18.2581 104.838 17.672 106.605 17.672H112.097C112.384 17.672 112.527 17.5744 112.623 17.3302L113.626 14.7418C113.674 14.5953 113.626 14.4976 113.483 14.4976H104.121V9.51623H115.393" fill="white"/>
<path fill-rule="evenodd" clip-rule="evenodd" d="M91.6104 11.3232C91.6104 13.2279 90.9417 14.8395 89.3179 15.7186C91.5149 16.3534 92.5179 18.3558 92.4701 20.7488C92.4701 24.7534 89.6999 26.3162 85.8313 26.3162H75.5626C74.4641 26.3162 74.082 25.9744 74.082 25.1441V7.66042C74.082 6.68368 74.6074 6.24414 75.9925 6.24414H84.3984C88.0761 6.24414 91.6104 6.87902 91.6104 11.3232ZM78.1895 9.4674H84.685C86.8343 9.4674 87.4552 10.2976 87.4552 12.0558C87.4552 13.7651 86.8343 14.6441 84.685 14.6441H78.1895V9.4674ZM85.4492 23.093H78.1895V19.4302C78.1895 18.2093 78.8582 17.6232 80.6253 17.6232H85.4492C87.7417 17.6232 88.4104 18.5511 88.4104 20.3581C88.4104 22.2139 87.7417 23.093 85.4492 23.093Z" fill="white"/>
<path fill-rule="evenodd" clip-rule="evenodd" d="M138.271 18.2581L142.665 25.9744C142.761 26.072 142.761 26.3162 142.426 26.3162H138.701C138.425 26.3162 138.326 26.1809 138.192 25.9969C138.187 25.9895 138.181 25.982 138.175 25.9744L134.211 18.6488H130.581C128.814 18.6488 128.146 19.2348 128.146 20.4558V26.3162H124.564C124.229 26.3162 124.086 26.1697 124.086 25.8279V7.66042C124.086 6.68368 124.611 6.24414 125.996 6.24414H134.402C139.274 6.24414 142.235 7.56275 142.235 12.4465C142.235 16.2069 140.468 17.672 138.271 18.2581ZM128.146 15.572H134.975C137.555 15.572 138.08 14.5465 138.08 12.4953C138.08 10.493 137.507 9.4674 134.975 9.4674H128.146V15.572Z" fill="white"/>
</svg>
