<svg width="190" height="32" viewBox="0 0 190 32" fill="none" xmlns="http://www.w3.org/2000/svg">
<path d="M70.6251 11.1257H59.4334V14.4257H67.392C66.994 19.0757 63.1142 21.1257 59.4831 21.1257C54.8075 21.1257 50.7287 17.4257 50.7287 12.2757C50.7287 7.22571 54.6085 3.32571 59.4831 3.32571C63.2635 3.32571 65.4521 5.72571 65.4521 5.72571L67.7401 3.32571C67.7401 3.32571 64.7557 0.0257088 59.3339 0.0257088C52.4199 -0.0242912 47.0977 5.82571 47.0977 12.1757C47.0977 18.3757 52.1215 24.4257 59.5329 24.4257C66.049 24.4257 70.8241 19.9757 70.8241 13.3257C70.8241 11.9257 70.6251 11.1257 70.6251 11.1257V11.1257Z" fill="white"/>
<path fill-rule="evenodd" clip-rule="evenodd" d="M71.8672 16.4758C71.8672 12.2758 75.1501 8.67578 79.7263 8.67578C83.5066 8.67578 87.5853 11.3758 87.6351 16.5758C87.6351 21.1758 84.1532 24.4258 79.8257 24.4258C75.0506 24.4258 71.8672 20.7758 71.8672 16.4758ZM84.1532 16.5758C84.1532 13.6758 82.0143 11.8258 79.776 11.8258C77.2392 11.8258 75.2993 13.8258 75.3491 16.5258C75.3491 19.3258 77.2889 21.3258 79.776 21.3258C82.0641 21.3258 84.1532 19.4758 84.1532 16.5758Z" fill="white"/>
<path fill-rule="evenodd" clip-rule="evenodd" d="M88.9805 16.4758C88.9805 12.2758 92.2634 8.67578 96.8395 8.67578C100.62 8.67578 104.699 11.3758 104.748 16.5758C104.748 21.1758 101.266 24.4258 96.939 24.4258C92.1639 24.4258 88.9805 20.7758 88.9805 16.4758ZM101.266 16.5758C101.266 13.6758 99.1276 11.8258 96.8893 11.8258C94.3525 11.8258 92.4126 13.8258 92.4623 16.5258C92.4623 19.3258 94.4022 21.3258 96.8893 21.3258C99.1774 21.3258 101.266 19.4758 101.266 16.5758Z" fill="white"/>
<path fill-rule="evenodd" clip-rule="evenodd" d="M106.09 16.5756C106.09 12.4256 109.373 8.72559 113.601 8.72559C115.441 8.72559 116.834 9.42559 117.729 10.5256V9.17559H121.012V23.3256C121.012 28.8756 117.829 31.5256 113.65 31.5256C109.82 31.5256 107.682 29.1756 106.637 26.9256L109.671 25.6756C110.119 26.6756 111.313 28.4756 113.7 28.4756C116.187 28.4756 117.829 26.8256 117.829 24.1256V22.5756C116.884 23.6256 115.74 24.4756 113.501 24.4756C109.92 24.4756 106.09 21.2756 106.09 16.5756ZM118.077 16.6256C118.077 13.6256 115.939 11.8256 113.899 11.8256C111.711 11.8256 109.572 13.5756 109.522 16.6756C109.522 19.5256 111.611 21.3756 113.849 21.3756C115.988 21.3756 118.077 19.7256 118.077 16.6256Z" fill="white"/>
<path fill-rule="evenodd" clip-rule="evenodd" d="M128.426 16.5258C128.426 11.8258 131.758 8.67578 135.738 8.67578C138.822 8.67578 141.159 10.7758 142.204 13.1758L142.751 14.4758L132.256 18.8758C132.902 20.0758 133.897 21.2758 136.086 21.2758C138.026 21.2758 139.22 20.2258 139.916 19.1258L142.652 20.9758C141.458 22.5758 139.369 24.4258 136.086 24.4258C132.156 24.4258 128.426 21.4758 128.426 16.5258ZM138.772 13.4258C138.274 12.4758 137.28 11.7258 135.837 11.7258C133.599 11.7258 131.41 14.0758 131.808 16.3758L138.772 13.4258Z" fill="white"/>
<path d="M123.449 23.9754H126.881V0.775391H123.449V23.9754Z" fill="white"/>
</svg>
