<svg width="190" height="32" viewBox="0 0 190 32" fill="none" xmlns="http://www.w3.org/2000/svg">
<path fill-rule="evenodd" clip-rule="evenodd" d="M61.0165 5.83962C61.0165 6.83019 60.1525 7.67925 59.1445 7.67925C58.1365 7.67925 57.2725 6.83019 57.2725 5.83962C57.2725 4.84906 58.1365 4 59.1445 4C60.1525 4 61.0165 4.84906 61.0165 5.83962ZM59.1445 9.18868C58.0405 9.18868 57.1765 10.0377 57.1765 11.1226C57.1765 12.2075 58.0405 13.0566 59.1445 13.0566C60.2485 13.0566 61.1125 12.2075 61.1125 11.1226C61.1125 9.99057 60.2485 9.18868 59.1445 9.18868ZM57.1285 16.3113C57.1285 15.2264 58.0405 14.3302 59.1445 14.3302C60.2485 14.3302 61.2085 15.2264 61.1605 16.3113C61.1605 17.3962 60.2485 18.2925 59.1445 18.2925C58.0405 18.2925 57.1285 17.3962 57.1285 16.3113ZM59.1445 19.566C58.0405 19.566 57.1765 20.4151 57.1765 21.5C57.1765 22.5849 58.0405 23.434 59.1445 23.434C60.2485 23.434 61.1125 22.5849 61.1125 21.5C61.1125 20.4623 60.2485 19.566 59.1445 19.566ZM57.2725 26.7358C57.2725 25.7453 58.1365 24.8962 59.1445 24.8962C60.2005 24.8962 61.0165 25.7453 61.0165 26.7358C61.0165 27.7264 60.1525 28.5755 59.1445 28.5755C58.1365 28.5755 57.2725 27.7264 57.2725 26.7358ZM64.3285 8.95283C63.1285 8.95283 62.1205 9.9434 62.1205 11.1226C62.1205 12.3019 63.1285 13.2925 64.3285 13.2925C65.5285 13.2925 66.5365 12.3019 66.5365 11.1226C66.5365 9.9434 65.5285 8.95283 64.3285 8.95283ZM62.0245 16.3585C62.0245 15.0849 63.0805 14.0943 64.3285 14.0943C65.5765 14.0943 66.6325 15.0849 66.6325 16.3585C66.6325 17.6321 65.5765 18.6226 64.3285 18.6226C63.0325 18.6226 62.0245 17.5849 62.0245 16.3585ZM64.3285 19.3302C63.1285 19.3302 62.1205 20.3208 62.1205 21.5C62.1205 22.6792 63.1285 23.6698 64.3285 23.6698C65.5285 23.6698 66.5365 22.6792 66.5365 21.5C66.5365 20.3208 65.5285 19.3302 64.3285 19.3302ZM67.1125 16.3113C67.1125 14.8962 68.3125 13.8113 69.6565 13.8113C71.0005 13.8113 72.1045 14.8962 72.2005 16.3113C72.2005 17.7264 71.0965 18.8113 69.6565 18.8113C68.2165 18.8113 67.1125 17.6321 67.1125 16.3113ZM53.9125 9.42453C53.0005 9.42453 52.2325 10.1792 52.2325 11.0755C52.2325 11.9717 53.0005 12.7264 53.9125 12.7264C54.8245 12.7264 55.5925 11.9717 55.5925 11.0755C55.5925 10.1792 54.8725 9.42453 53.9125 9.42453ZM52.1365 16.3113C52.1365 15.3208 52.9045 14.566 53.9125 14.566C54.9205 14.566 55.6885 15.3208 55.6885 16.3113C55.6885 17.3019 54.9205 18.0566 53.9125 18.0566C52.9045 18.0566 52.1365 17.3019 52.1365 16.3113ZM53.9125 19.8019C53.0005 19.8019 52.2325 20.5566 52.2325 21.4528C52.2325 22.3491 53.0005 23.1038 53.9125 23.1038C54.8245 23.1038 55.5925 22.3491 55.5925 21.4528C55.5925 20.5566 54.8725 19.8019 53.9125 19.8019ZM47.1445 16.3585C47.1445 15.5094 47.8165 14.8491 48.6805 14.8491C49.5445 14.8491 50.2165 15.5094 50.2165 16.3585C50.2165 17.2075 49.5445 17.8679 48.6805 17.8679C47.8165 17.8679 47.1445 17.2075 47.1445 16.3585Z" fill="white"/>
<path d="M91.3047 13.1035C91.1127 13.1035 90.9688 13.2922 90.9688 13.4337V26.4997C90.9688 26.6884 91.1608 26.8299 91.3047 26.8299H92.8887C93.0807 26.8299 93.2248 26.6413 93.2248 26.4997V13.4337C93.2248 13.245 93.0327 13.1035 92.8887 13.1035H91.3047V13.1035Z" fill="white"/>
<path d="M92.1688 7.58496C91.3048 7.58496 90.6328 8.24534 90.6328 9.09439C90.6328 9.94345 91.3048 10.6038 92.1688 10.6038C93.0328 10.6038 93.7048 9.94345 93.7048 9.09439C93.7048 8.24534 92.9848 7.58496 92.1688 7.58496Z" fill="white"/>
<path d="M125.383 13.1035C125.191 13.1035 125.047 13.2922 125.047 13.4337V26.4997C125.047 26.6884 125.239 26.8299 125.383 26.8299H126.967C127.159 26.8299 127.303 26.6413 127.303 26.4997V13.4337C127.303 13.245 127.111 13.1035 126.967 13.1035H125.383V13.1035Z" fill="white"/>
<path d="M126.149 7.58496C125.285 7.58496 124.613 8.24534 124.613 9.09439C124.613 9.94345 125.285 10.6038 126.149 10.6038C127.013 10.6038 127.685 9.94345 127.685 9.09439C127.685 8.24534 127.013 7.58496 126.149 7.58496Z" fill="white"/>
<path fill-rule="evenodd" clip-rule="evenodd" d="M142.357 25.4C142.347 25.4459 142.323 25.5014 142.264 25.557C142.264 25.6513 142.164 25.7456 141.964 25.6985L142.041 25.7867C142.031 25.7906 142.022 25.7928 142.014 25.7928H141.864L142.214 26.2173H142.414L142.041 25.7867C142.057 25.7803 142.077 25.7695 142.098 25.7577C142.147 25.7308 142.205 25.6985 142.264 25.6985C142.364 25.6985 142.364 25.6041 142.364 25.5098C142.364 25.471 142.364 25.4322 142.357 25.4ZM141.664 25.7928V25.6513V25.2268H142.014C142.114 25.2268 142.214 25.2268 142.264 25.3211C142.323 25.3211 142.347 25.3538 142.357 25.4C142.364 25.3679 142.364 25.3405 142.364 25.3211V25.2268C142.364 25.2268 142.364 25.1324 142.264 25.1324C142.264 25.1324 142.164 25.0381 142.064 25.0381H141.864H141.414V26.2173H141.614V25.7928H141.664Z" fill="#8C98A4"/>
<path fill-rule="evenodd" clip-rule="evenodd" d="M140.793 25.6513C140.793 25.0853 141.321 24.5664 141.897 24.5664C142.521 24.5664 143.001 25.0381 143.001 25.6513C143.001 26.2173 142.473 26.7362 141.897 26.7362C141.321 26.7362 140.793 26.2173 140.793 25.6513ZM140.889 25.6513C140.889 26.2173 141.321 26.6419 141.897 26.6419C142.425 26.6419 142.905 26.2173 142.905 25.6513C142.905 25.0853 142.473 24.6607 141.897 24.6607C141.321 24.6607 140.889 25.0853 140.889 25.6513Z" fill="#8C98A4"/>
<path d="M104.504 15.2259C104.696 15.2259 104.84 15.0372 104.84 14.8957V13.3391C104.84 13.1504 104.648 13.0089 104.504 13.0089H101.096V8.0089C101.096 7.82022 100.904 7.67871 100.76 7.67871H99.1762C98.9842 7.67871 98.8402 7.86739 98.8402 8.0089V13.0089H97.1602C96.9682 13.0089 96.8242 13.1976 96.8242 13.3391V14.8957C96.8242 15.0844 97.0162 15.2259 97.1602 15.2259H98.8402V22.7731C98.8402 25.0844 100.424 26.5938 102.728 26.5938H104.408C104.6 26.5938 104.744 26.4051 104.744 26.2636V24.707C104.744 24.5183 104.552 24.3768 104.408 24.3768H102.968C101.864 24.3768 101.096 23.6221 101.096 22.4429V15.1787H104.504V15.2259V15.2259Z" fill="white"/>
<path d="M138.2 15.2259C138.392 15.2259 138.536 15.0372 138.536 14.8957V13.3391C138.536 13.1504 138.344 13.0089 138.2 13.0089H134.792V8.0089C134.792 7.82022 134.6 7.67871 134.456 7.67871H132.872C132.68 7.67871 132.536 7.86739 132.536 8.0089V13.0089H130.856C130.664 13.0089 130.52 13.1976 130.52 13.3391V14.8957C130.52 15.0844 130.712 15.2259 130.856 15.2259H132.536V22.7731C132.536 25.0844 134.12 26.5938 136.424 26.5938H138.104C138.296 26.5938 138.44 26.4051 138.44 26.2636V24.707C138.44 24.5183 138.248 24.3768 138.104 24.3768H136.568C135.464 24.3768 134.696 23.6221 134.696 22.4429V15.1787H138.152L138.2 15.2259V15.2259Z" fill="white"/>
<path d="M81.223 15.2263V26.3584C81.223 26.5471 81.415 26.6886 81.559 26.6886H83.143C83.335 26.6886 83.479 26.4999 83.479 26.3584V15.2263H87.223C87.415 15.2263 87.559 15.0377 87.559 14.8962V13.3395C87.559 13.1509 87.367 13.0094 87.223 13.0094H83.479V10.0848C83.479 8.90559 84.343 8.1037 85.351 8.1037H87.223C87.415 8.1037 87.559 7.91502 87.559 7.77351V6.21691C87.559 6.02823 87.367 5.88672 87.223 5.88672H85.447C83.095 5.88672 81.223 7.82068 81.223 10.0377V13.0094H79.543C79.351 13.0094 79.207 13.198 79.207 13.3395V14.8962C79.207 15.0848 79.399 15.2263 79.543 15.2263H81.223V15.2263Z" fill="white"/>
<path fill-rule="evenodd" clip-rule="evenodd" d="M115.111 12.5844C116.983 12.5844 118.759 13.3392 120.007 14.6599C121.255 15.9807 121.927 17.8203 121.927 19.8486C121.927 24.8958 118.423 27.1599 115.063 27.1599C111.655 27.1599 108.199 24.9429 108.199 19.8486V6.12218C108.199 5.98067 108.343 5.79199 108.535 5.79199H110.119C110.263 5.79199 110.455 5.9335 110.455 6.12218V14.4241C111.559 13.3392 113.335 12.5844 115.111 12.5844ZM110.407 19.8958C110.407 22.3958 111.655 25.0373 115.063 25.0373C118.471 25.0373 119.671 22.3958 119.719 19.8958C119.719 16.8769 117.847 14.8014 115.063 14.8014C112.279 14.8014 110.407 16.8297 110.407 19.8958Z" fill="white"/>
</svg>
