<svg width="190" height="32" viewBox="0 0 190 32" fill="none" xmlns="http://www.w3.org/2000/svg">
<path fill-rule="evenodd" clip-rule="evenodd" d="M74.416 22.2385L74.416 22.2386C74.8458 23.3338 74.9414 24.3814 74.7981 25.429C74.4637 27.6195 73.0309 29.5243 70.9294 30.3814C70.1652 30.7148 69.3533 30.8576 68.4936 30.8576C68.2548 30.8576 67.9682 30.8576 67.7294 30.81C66.7264 30.7148 65.7234 30.3814 64.7205 29.81C63.5264 29.1433 62.3324 28.1433 60.9951 26.7148C59.6578 28.1433 58.5115 29.1433 57.2697 29.81C56.2667 30.3814 55.2637 30.6671 54.2608 30.81C54.1414 30.81 54.01 30.8219 53.8787 30.8338C53.7473 30.8457 53.616 30.8576 53.4966 30.8576C52.6369 30.8576 51.8249 30.7148 51.0608 30.3814C49.007 29.5243 47.4787 27.6671 47.1443 25.429C47.0011 24.3338 47.1443 23.2862 47.5264 22.2386C47.6697 21.81 47.813 21.4767 47.9563 21.1433L47.9563 21.1433C48.1951 20.6195 48.4339 20.0957 48.6249 19.6195L48.6727 19.5719C50.7742 15.0957 52.9712 10.5719 55.2637 6.0957L55.3593 5.90523C55.5981 5.47666 55.8369 5.00047 56.0757 4.52427C56.14 4.42356 56.2042 4.32109 56.2692 4.21754L56.2693 4.21734C56.5422 3.78235 56.827 3.32826 57.1742 2.90523C58.1772 1.76237 59.5145 1.0957 60.9951 1.0957C62.4279 1.0957 63.813 1.76237 64.7682 2.95285C65.2458 3.47666 65.5802 4.04808 65.8667 4.57189C66.1055 5.04808 66.3443 5.52427 66.5832 5.95285L66.6787 6.14332C69.019 10.6195 71.216 15.1433 73.2697 19.6195H73.3175C73.5085 20.0957 73.7473 20.6194 73.9861 21.1432L73.9861 21.1433C74.1294 21.4766 74.2727 21.8575 74.4159 22.2384L74.4159 22.2385L74.416 22.2385ZM97.4846 8.57189C97.4846 9.66713 96.6249 10.5243 95.5264 10.5243C94.4279 10.5243 93.5682 9.66713 93.5682 8.57189C93.5682 7.47666 94.4279 6.61951 95.5264 6.61951C96.6727 6.66713 97.4846 7.52427 97.4846 8.57189ZM89.5085 12.4767V12.9528C89.5085 12.9528 88.6011 11.7624 86.5951 11.7624C83.3473 11.7624 80.816 14.2386 80.816 17.6671C80.816 21.0481 83.3473 23.5719 86.5951 23.5719C88.6011 23.5719 89.5085 22.3338 89.5085 22.3338V22.8576C89.5085 23.0957 89.6996 23.2862 89.9384 23.2862H92.3742V12.0481H89.9384C89.6518 12.0481 89.5085 12.2386 89.5085 12.4767ZM87.0727 20.8576C88.1712 20.8576 89.0787 20.2862 89.5085 19.6195V15.6195C89.0787 15.0005 88.1235 14.3814 87.0727 14.3814C85.1623 14.3814 83.6817 15.5719 83.6817 17.6195C83.6817 19.6671 85.1623 20.8576 87.0727 20.8576ZM96.9593 12.0481V23.2386H94.0936V12.0481H96.9593ZM134.022 12.9528C134.022 12.9528 134.977 11.7624 136.935 11.7624C140.183 11.7624 142.715 14.2386 142.715 17.6195C142.715 21.0005 140.183 23.5243 136.935 23.5243C134.929 23.5243 134.022 22.2862 134.022 22.2862V22.81C134.022 23.0481 133.831 23.2386 133.592 23.2386H131.156V6.66713H134.022V12.9528ZM136.458 20.81C135.359 20.81 134.5 20.2386 134.022 19.5719V15.5719C134.452 14.9528 135.407 14.3338 136.458 14.3338C138.368 14.3338 139.849 15.5243 139.849 17.5719C139.849 19.6195 138.368 20.81 136.458 20.81ZM129.676 23.2862V16.6195C129.676 14.7148 129.294 13.6671 128.338 12.8576C127.479 12.1433 126.428 11.7624 125.186 11.7624C124.088 11.7624 122.989 12.0957 122.129 12.9528V12.4767C122.129 12.2386 121.938 12.0481 121.7 12.0481H119.407V23.2862H122.273V15.4767C122.846 14.81 123.753 14.3814 124.613 14.3814C126.189 14.3814 126.81 15.0957 126.81 16.9528V23.2862H129.676ZM112.434 11.7624C110.476 11.7624 109.52 12.9528 109.52 12.9528V6.66713H106.655V23.2386H109.091C109.329 23.2386 109.52 23.0481 109.52 22.81V22.2862C109.52 22.2862 110.428 23.5243 112.434 23.5243C115.682 23.5243 118.213 21.0005 118.213 17.6195C118.261 14.2386 115.729 11.7624 112.434 11.7624ZM109.52 19.5719C109.998 20.2386 110.858 20.81 111.956 20.81C113.867 20.81 115.347 19.6195 115.347 17.5719C115.347 15.5243 113.867 14.3338 111.956 14.3338C110.906 14.3338 109.95 14.9528 109.52 15.5719V19.5719ZM104.219 11.7624C105.079 11.7624 105.556 11.9052 105.556 11.9052V14.5719C105.556 14.5719 103.168 13.7624 101.688 15.4767V23.2862H98.822V12.0481H101.258C101.497 12.0481 101.688 12.2386 101.688 12.4767V12.9528C102.165 12.3338 103.312 11.7624 104.219 11.7624ZM60.9473 23.7624C59.3235 21.7148 58.2727 19.81 57.9384 18.2386C57.7951 17.5719 57.7473 16.9528 57.8429 16.429C57.8906 15.9528 58.0817 15.5243 58.3205 15.1909C58.8936 14.3814 59.8488 13.8576 60.9473 13.8576C62.0458 13.8576 63.0488 14.3338 63.5742 15.1909C63.813 15.5719 64.004 15.9528 64.0518 16.429C64.1473 16.9528 64.0996 17.5719 63.9563 18.2386C63.622 19.81 62.5712 21.7148 60.9473 23.7624ZM70.1652 28.6671C71.6458 28.0957 72.6966 26.7624 72.8876 25.1909C72.9832 24.3814 72.8876 23.6671 72.7443 22.9052C72.6926 22.7505 72.6269 22.5959 72.5548 22.4261C72.4937 22.2822 72.428 22.1276 72.3623 21.9528C72.2429 21.7148 72.1354 21.4648 72.0279 21.2148C71.9205 20.9648 71.813 20.7148 71.6936 20.4767V20.429C69.6399 16.0005 67.4429 11.4767 65.1503 7.04808L65.0548 6.85761C64.816 6.38142 64.5772 5.90523 64.3384 5.47666C64.0996 5.00046 63.813 4.52427 63.4787 4.14332C62.8578 3.42904 61.9981 3.04808 61.0906 3.04808C60.1832 3.04808 59.3235 3.42904 58.7026 4.14332C58.3682 4.57189 58.0817 5.00046 57.8429 5.47666C57.604 5.95285 57.3652 6.42904 57.1264 6.85761L57.0309 7.04808C54.6906 11.4767 52.4936 16.0005 50.4399 20.429L50.3921 20.4767C50.1533 20.9528 49.9145 21.4767 49.7235 21.9528L49.7234 21.9529C49.5802 22.2862 49.4369 22.6195 49.3414 22.9052C49.007 23.7624 48.9593 24.4767 49.0548 25.2386C49.2458 26.7624 50.2966 28.0957 51.7772 28.7148C52.4458 28.9528 53.21 29.0957 54.022 29.0005C54.7861 28.9052 55.5503 28.6671 56.3145 28.2386C57.3652 27.6195 58.4637 26.7148 59.7055 25.3338C57.7473 22.9052 56.5055 20.6671 56.0757 18.7148C55.8369 17.81 55.7891 16.9528 55.9324 16.1909C56.0757 15.429 56.3145 14.7624 56.7443 14.1433C57.6518 12.8576 59.2279 12.0481 60.9473 12.0481C62.6667 12.0481 64.2429 12.81 65.1503 14.1433C65.5802 14.7624 65.819 15.429 65.9623 16.1909C66.0578 16.9528 66.01 17.81 65.819 18.7148C65.3414 20.6671 64.1473 22.8576 62.1891 25.2862C63.4309 26.6671 64.4817 27.5719 65.5802 28.1909C66.3921 28.6195 67.1085 28.8576 67.8727 28.9528C68.6846 29.0481 69.4488 28.9528 70.1652 28.6671Z" fill="white"/>
</svg>
