<svg width="96" height="26" viewBox="0 0 96 26" fill="none" xmlns="http://www.w3.org/2000/svg">
<path fill-rule="evenodd" clip-rule="evenodd" d="M10.7598 24.3501H10.7598L10.7597 24.3501L10.7595 24.3501C10.2071 24.4067 9.64622 24.4642 9.07194 24.5349L4.46394 11.204V25.1022C3.02394 25.244 1.72794 25.4331 0.335938 25.6695V0.189453H4.17594L9.40794 14.6549V0.189453H13.4879V24.0149C12.5864 24.1629 11.6849 24.2553 10.7598 24.3501ZM24.2916 9.50049L24.2918 9.50049L24.2919 9.50049C25.2456 9.47743 26.1771 9.45491 26.8799 9.45491V13.4258C25.1039 13.4258 22.9919 13.4258 21.4559 13.5204V19.4295C22.2038 19.3844 22.9566 19.3345 23.7127 19.2844L23.7128 19.2844L23.7129 19.2844L23.713 19.2844H23.713H23.713H23.713H23.7131H23.7131H23.7131H23.7131C25.3346 19.1769 26.9713 19.0685 28.6079 19.004V22.8331L17.4239 23.684V0.189453H28.6079V4.16036H21.4559V9.54945C22.2667 9.54945 23.2913 9.52468 24.2915 9.5005L24.2915 9.50049H24.2916H24.2916ZM39.4079 4.20763H43.5839C43.5839 4.20763 43.5839 0.189453 43.6319 0.189453H31.1999V4.20763H35.3759V22.5495C36.6719 22.5022 38.0639 22.5022 39.4079 22.5022V4.20763ZM50.1599 9.26582H55.6799V13.2367H50.1599V22.2658H46.1759V0.189453H57.4559V4.16036H50.1599V9.26582ZM68.2177 18.9577C66.8296 18.8773 65.4308 18.7963 64.0319 18.7676V0.189453H59.9999V22.5022C63.6959 22.5967 67.2959 22.7858 70.8959 23.0222V19.0985C70.0096 19.0614 69.1159 19.0097 68.2177 18.9577ZM75.6663 23.393L75.6664 23.393C76.5313 23.4445 77.4096 23.4968 78.2879 23.5895V0.189453H74.3039V23.3058C74.753 23.3386 75.2077 23.3657 75.6663 23.393ZM90.8159 12.2913L95.9519 0.189453H91.4879L88.6559 6.85491L86.0159 0.189453H81.6959L86.3999 12.1495L81.2159 23.7785C81.7919 23.8542 82.3679 23.9147 82.9439 23.9752C83.8079 24.066 84.6719 24.1567 85.5359 24.2985L88.5119 17.5385L91.3919 24.9131C91.9299 24.9959 92.4619 25.0844 92.9921 25.1727C93.976 25.3365 94.9538 25.4993 95.9519 25.6222L90.8159 12.2913Z" fill="white"/>
</svg>
