<svg width="190" height="32" viewBox="0 0 190 32" fill="none" xmlns="http://www.w3.org/2000/svg">
<path d="M59.7008 3.19998C59.263 1.7655 57.7306 0.993084 56.3078 1.43446C54.8849 1.87584 54.1187 3.42067 54.5565 4.85515L61.5615 26.5931C62.054 27.9172 63.4769 28.6896 64.8451 28.3034C66.268 27.862 67.1436 26.3724 66.7058 24.9379C66.7058 24.8827 59.7008 3.19998 59.7008 3.19998" fill="white"/>
<path d="M48.8648 6.78592C48.427 5.35144 46.8947 4.57902 45.4718 5.0204C44.0489 5.46178 43.2828 7.00661 43.7206 8.44109L50.7255 30.179C51.2181 31.5032 52.641 32.2756 54.0091 31.8894C55.432 31.448 56.3076 29.9583 55.8698 28.5238C55.8698 28.4687 48.8648 6.78592 48.8648 6.78592" fill="white"/>
<path d="M68.5696 21.2408C69.9925 20.7994 70.7587 19.2546 70.3209 17.8201C69.883 16.3856 68.3507 15.6132 66.9278 16.0546L45.3109 23.0615C43.9975 23.558 43.2313 24.9925 43.6144 26.3718C44.0522 27.8063 45.5298 28.6891 46.9527 28.2477C47.0621 28.2477 68.5696 21.2408 68.5696 21.2408" fill="white"/>
<path d="M49.7981 27.3653C51.221 26.9239 53.0269 26.317 54.9424 25.655C54.5045 24.2205 53.9026 22.3998 53.2458 20.4688L48.1016 22.1791L49.7981 27.3653" fill="white"/>
<path d="M60.6887 23.7784C62.6589 23.1163 64.4648 22.5646 65.833 22.068C65.3952 20.6336 64.7932 18.8129 64.1365 16.8818L58.9922 18.5922L60.6887 23.7784" fill="white"/>
<path d="M65.011 10.2613C66.4339 9.81992 67.2 8.27509 66.7622 6.84061C66.3244 5.40612 64.7921 4.63371 63.3692 5.07509L41.807 12.1372C40.4936 12.6337 39.7274 14.0682 40.1105 15.4475C40.5483 16.9372 42.0259 17.8199 43.4488 17.3234C43.5035 17.3234 65.011 10.2613 65.011 10.2613" fill="white"/>
<path d="M46.2942 16.3858C47.7171 15.9444 49.523 15.3375 51.4385 14.6755C50.7817 12.6893 50.2345 10.8686 49.7419 9.48926L44.5977 11.1996L46.2942 16.3858" fill="white"/>
<path d="M57.1301 12.8546C59.1003 12.1925 60.9062 11.6408 62.2744 11.1442C61.6177 9.15801 61.0704 7.33732 60.5779 5.95801L55.4336 7.66835L57.1301 12.8546" fill="white"/>
<path d="M90.4042 8.93741C91.3345 9.37879 91.444 9.65465 90.6778 11.0891C89.9116 12.5788 89.7475 12.634 88.7624 12.2478C87.5584 11.7512 86.0808 11.365 85.0957 11.365C83.5086 11.365 82.4688 11.9167 82.4688 12.7995C82.4688 15.6684 91.6081 14.1236 91.6081 20.3029C91.6081 23.3926 88.9813 25.434 85.041 25.434C82.9614 25.434 80.3892 24.7167 78.638 23.834C77.7624 23.3926 77.7076 23.1167 78.4738 21.6271C79.1305 20.3581 79.3494 20.1926 80.2798 20.5788C81.8121 21.2409 83.6728 21.7374 84.9863 21.7374C86.4639 21.7374 87.3942 21.1305 87.3942 20.2478C87.3942 17.434 78.0907 18.7581 78.0907 12.7995C78.0907 9.65465 80.7176 7.50293 84.6032 7.50293C86.4639 7.66845 88.8171 8.22017 90.4042 8.93741" fill="white"/>
<path d="M97.792 1.65469V24.6064C97.792 24.9374 97.4089 25.3237 96.9164 25.3237H94.5084C93.9612 25.3237 93.6328 24.9374 93.6328 24.6064V1.65469C93.6328 0.496065 93.9612 0.440892 95.7124 0.440892C97.6826 0.38572 97.792 0.551237 97.792 1.65469" fill="white"/>
<path fill-rule="evenodd" clip-rule="evenodd" d="M114.757 24.3862V14.5103C114.757 10.2069 111.856 7.66895 107.259 7.66895C105.18 7.66895 102.881 8.33101 101.239 9.43446C100.364 9.98619 100.364 10.262 101.239 11.6414C102.17 13.0207 102.334 13.0758 103.209 12.5793C104.304 11.9172 105.672 11.4758 106.821 11.4758C109.229 11.4758 110.652 12.5793 110.652 14.4V15.5586C109.503 15.062 108.08 14.7862 106.548 14.7862C102.443 14.7862 99.7617 16.9931 99.7617 20.3034C99.7617 23.3931 102.17 25.4896 105.727 25.4896C107.588 25.4896 109.448 24.7172 110.707 23.2827L110.652 24.331C110.598 24.8827 110.981 25.2689 111.528 25.2689H113.881C114.374 25.2689 114.757 24.9379 114.757 24.3862ZM106.219 22.1793C104.742 22.1793 103.757 21.4069 103.757 20.2483C103.757 18.8138 105.234 17.7103 107.423 17.7103C108.463 17.7103 109.667 17.8758 110.598 18.262V19.8069C109.667 21.2965 108.025 22.1793 106.219 22.1793Z" fill="white"/>
<path d="M131.01 8.99249C131.886 9.48904 131.886 9.7649 130.955 11.2546C130.08 12.6339 129.916 12.7442 128.931 12.2477C128.219 11.8615 127.015 11.5304 126.085 11.5304C123.075 11.5304 121.105 13.5166 121.105 16.5511C121.105 19.6959 123.075 21.7925 126.085 21.7925C127.125 21.7925 128.438 21.4063 129.259 20.9097C130.135 20.4132 130.299 20.4132 131.229 21.7925C132.05 23.0615 132.05 23.3373 131.284 23.889C129.97 24.827 127.836 25.5442 125.975 25.5442C120.448 25.5442 116.727 21.958 116.727 16.6063C116.727 11.2546 120.448 7.72353 126.03 7.72353C127.781 7.66835 129.751 8.22008 131.01 8.99249" fill="white"/>
<path d="M149.124 23.1163C149.836 23.999 149.562 24.3301 147.811 24.937C146.059 25.5991 145.786 25.5439 145.184 24.7163L140.204 18.0404L137.96 20.1922V24.5508C137.96 24.8818 137.577 25.268 137.084 25.268H134.676C134.129 25.268 133.801 24.8818 133.801 24.5508V1.65422C133.801 0.495602 134.129 0.44043 135.88 0.44043C137.905 0.44043 137.96 0.605947 137.96 1.65422V14.6749L144.746 8.1094C145.512 7.39215 145.895 7.44733 147.263 8.33008C148.741 9.26802 148.851 9.54388 148.139 10.2611L143.104 15.2266L149.124 23.1163" fill="white"/>
</svg>
