<svg width="96" height="30" viewBox="0 0 96 30" fill="none" xmlns="http://www.w3.org/2000/svg">
<path fill-rule="evenodd" clip-rule="evenodd" d="M27.416 21.2385L27.416 21.2386C27.8458 22.3338 27.9414 23.3814 27.7981 24.429C27.4637 26.6195 26.0309 28.5243 23.9294 29.3814C23.1652 29.7148 22.3533 29.8576 21.4936 29.8576C21.2548 29.8576 20.9682 29.8576 20.7294 29.81C19.7264 29.7148 18.7234 29.3814 17.7205 28.81C16.5264 28.1433 15.3324 27.1433 13.9951 25.7148C12.6578 27.1433 11.5115 28.1433 10.2697 28.81C9.26673 29.3814 8.26375 29.6671 7.26076 29.81C7.14136 29.81 7.01002 29.8219 6.87867 29.8338C6.74733 29.8457 6.61599 29.8576 6.49658 29.8576C5.63688 29.8576 4.82494 29.7148 4.06076 29.3814C2.00703 28.5243 0.478674 26.6671 0.144346 24.429C0.00106212 23.3338 0.144346 22.2862 0.526435 21.2386C0.669716 20.81 0.812996 20.4767 0.956277 20.1433L0.956286 20.1433C1.19509 19.6195 1.4339 19.0957 1.62494 18.6195L1.6727 18.5719C3.7742 14.0957 5.97121 9.57189 8.26375 5.0957L8.35927 4.90523C8.59808 4.47666 8.83688 4.00047 9.07569 3.52427C9.13997 3.42356 9.20425 3.32109 9.26921 3.21754L9.26933 3.21734C9.5422 2.78235 9.82705 2.32826 10.1742 1.90523C11.1772 0.76237 12.5145 0.0957031 13.9951 0.0957031C15.4279 0.0957031 16.813 0.76237 17.7682 1.95285C18.2458 2.47666 18.5802 3.04808 18.8667 3.57189C19.1055 4.04808 19.3443 4.52427 19.5832 4.95285L19.6787 5.14332C22.019 9.61951 24.216 14.1433 26.2697 18.6195H26.3175C26.5085 19.0957 26.7473 19.6194 26.9861 20.1432L26.9861 20.1433C27.1294 20.4766 27.2727 20.8575 27.4159 21.2384L27.4159 21.2385L27.416 21.2385ZM50.4846 7.57189C50.4846 8.66713 49.6249 9.52427 48.5264 9.52427C47.4279 9.52427 46.5682 8.66713 46.5682 7.57189C46.5682 6.47666 47.4279 5.61951 48.5264 5.61951C49.6727 5.66713 50.4846 6.52427 50.4846 7.57189ZM42.5085 11.4767V11.9528C42.5085 11.9528 41.6011 10.7624 39.5951 10.7624C36.3473 10.7624 33.816 13.2386 33.816 16.6671C33.816 20.0481 36.3473 22.5719 39.5951 22.5719C41.6011 22.5719 42.5085 21.3338 42.5085 21.3338V21.8576C42.5085 22.0957 42.6996 22.2862 42.9384 22.2862H45.3742V11.0481H42.9384C42.6518 11.0481 42.5085 11.2386 42.5085 11.4767ZM40.0727 19.8576C41.1712 19.8576 42.0787 19.2862 42.5085 18.6195V14.6195C42.0787 14.0005 41.1235 13.3814 40.0727 13.3814C38.1623 13.3814 36.6817 14.5719 36.6817 16.6195C36.6817 18.6671 38.1623 19.8576 40.0727 19.8576ZM49.9593 11.0481V22.2386H47.0936V11.0481H49.9593ZM87.022 11.9528C87.022 11.9528 87.9772 10.7624 89.9354 10.7624C93.1832 10.7624 95.7145 13.2386 95.7145 16.6195C95.7145 20.0005 93.1832 22.5243 89.9354 22.5243C87.9294 22.5243 87.022 21.2862 87.022 21.2862V21.81C87.022 22.0481 86.8309 22.2386 86.5921 22.2386H84.1563V5.66713H87.022V11.9528ZM89.4578 19.81C88.3593 19.81 87.4996 19.2386 87.022 18.5719V14.5719C87.4518 13.9528 88.407 13.3338 89.4578 13.3338C91.3682 13.3338 92.8488 14.5243 92.8488 16.5719C92.8488 18.6195 91.3682 19.81 89.4578 19.81ZM82.6757 22.2862V15.6195C82.6757 13.7148 82.2936 12.6671 81.3384 11.8576C80.4787 11.1433 79.4279 10.7624 78.1861 10.7624C77.0876 10.7624 75.9891 11.0957 75.1294 11.9528V11.4767C75.1294 11.2386 74.9384 11.0481 74.6996 11.0481H72.407V22.2862H75.2727V14.4767C75.8458 13.81 76.7533 13.3814 77.613 13.3814C79.1891 13.3814 79.81 14.0957 79.81 15.9528V22.2862H82.6757ZM65.4339 10.7624C63.4757 10.7624 62.5205 11.9528 62.5205 11.9528V5.66713H59.6548V22.2386H62.0906C62.3294 22.2386 62.5205 22.0481 62.5205 21.81V21.2862C62.5205 21.2862 63.4279 22.5243 65.4339 22.5243C68.6817 22.5243 71.213 20.0005 71.213 16.6195C71.2608 13.2386 68.7294 10.7624 65.4339 10.7624ZM62.5205 18.5719C62.9981 19.2386 63.8578 19.81 64.9563 19.81C66.8667 19.81 68.3473 18.6195 68.3473 16.5719C68.3473 14.5243 66.8667 13.3338 64.9563 13.3338C63.9055 13.3338 62.9503 13.9528 62.5205 14.5719V18.5719ZM57.219 10.7624C58.0787 10.7624 58.5563 10.9052 58.5563 10.9052V13.5719C58.5563 13.5719 56.1682 12.7624 54.6876 14.4767V22.2862H51.822V11.0481H54.2578C54.4966 11.0481 54.6876 11.2386 54.6876 11.4767V11.9528C55.1652 11.3338 56.3115 10.7624 57.219 10.7624ZM13.9473 22.7624C12.3235 20.7148 11.2727 18.81 10.9384 17.2386C10.7951 16.5719 10.7473 15.9528 10.8429 15.429C10.8906 14.9528 11.0817 14.5243 11.3205 14.1909C11.8936 13.3814 12.8488 12.8576 13.9473 12.8576C15.0458 12.8576 16.0488 13.3338 16.5742 14.1909C16.813 14.5719 17.004 14.9528 17.0518 15.429C17.1473 15.9528 17.0996 16.5719 16.9563 17.2386C16.622 18.81 15.5712 20.7148 13.9473 22.7624ZM23.1652 27.6671C24.6458 27.0957 25.6966 25.7624 25.8876 24.1909C25.9832 23.3814 25.8876 22.6671 25.7443 21.9052C25.6926 21.7505 25.6269 21.5959 25.5548 21.4261C25.4937 21.2822 25.428 21.1276 25.3623 20.9528C25.2429 20.7148 25.1354 20.4648 25.0279 20.2148C24.9205 19.9648 24.813 19.7148 24.6936 19.4767V19.429C22.6399 15.0005 20.4429 10.4767 18.1503 6.04808L18.0548 5.85761C17.816 5.38142 17.5772 4.90523 17.3384 4.47666C17.0996 4.00046 16.813 3.52427 16.4787 3.14332C15.8578 2.42904 14.9981 2.04808 14.0906 2.04808C13.1832 2.04808 12.3235 2.42904 11.7026 3.14332C11.3682 3.57189 11.0817 4.00046 10.8429 4.47666C10.604 4.95285 10.3652 5.42904 10.1264 5.85761L10.0309 6.04808C7.69061 10.4767 5.4936 15.0005 3.43987 19.429L3.39211 19.4767C3.1533 19.9528 2.91449 20.4767 2.72345 20.9528L2.72344 20.9529C2.58016 21.2862 2.43688 21.6195 2.34136 21.9052C2.00703 22.7624 1.95927 23.4767 2.05479 24.2386C2.24584 25.7624 3.29658 27.0957 4.77718 27.7148C5.44584 27.9528 6.21002 28.0957 7.02196 28.0005C7.78614 27.9052 8.55032 27.6671 9.3145 27.2386C10.3652 26.6195 11.4637 25.7148 12.7055 24.3338C10.7473 21.9052 9.50554 19.6671 9.07569 17.7148C8.83688 16.81 8.78912 15.9528 8.93241 15.1909C9.07569 14.429 9.3145 13.7624 9.74435 13.1433C10.6518 11.8576 12.2279 11.0481 13.9473 11.0481C15.6667 11.0481 17.2429 11.81 18.1503 13.1433C18.5802 13.7624 18.819 14.429 18.9623 15.1909C19.0578 15.9528 19.01 16.81 18.819 17.7148C18.3414 19.6671 17.1473 21.8576 15.1891 24.2862C16.4309 25.6671 17.4817 26.5719 18.5802 27.1909C19.3921 27.6195 20.1085 27.8576 20.8727 27.9528C21.6846 28.0481 22.4488 27.9528 23.1652 27.6671Z" fill="white"/>
</svg>
