<svg width="96" height="21" viewBox="0 0 96 21" fill="none" xmlns="http://www.w3.org/2000/svg">
<path d="M15.0448 0.732513V12.0139C15.0448 15.7744 13.4209 17.3372 9.6 17.3372C5.77911 17.3372 4.15522 15.7744 4.15522 12.0139V0.244141H0.477612C0.143284 0.244141 0 0.390652 0 0.732513V12.1604C0 18.4604 3.91642 20.6581 9.6 20.6581C15.2836 20.6581 19.2 18.4604 19.2 12.1604V0.244141H15.5224C15.2358 0.244141 15.0448 0.390652 15.0448 0.732513Z" fill="white"/>
<path d="M68.393 3.51623C68.6795 3.51623 68.8228 3.41856 68.9183 3.17437L69.9691 0.488327C70.0168 0.341815 69.9691 0.244141 69.8258 0.244141H55.0198C53.6347 0.244141 53.1094 0.683676 53.1094 1.66042V19.1441C53.1094 19.9744 53.4915 20.3162 54.59 20.3162H68.393C68.6795 20.3162 68.8228 20.2186 68.9183 19.9744L69.9691 17.2883C70.0168 17.1418 69.9691 17.0441 69.8258 17.0441H57.1691V13.479C57.1691 12.2581 57.8377 11.672 59.6049 11.672H65.0974C65.384 11.672 65.5273 11.5744 65.6228 11.3302L66.6258 8.74181C66.6736 8.5953 66.6258 8.49763 66.4825 8.49763H57.1213V3.51623H68.393Z" fill="white"/>
<path fill-rule="evenodd" clip-rule="evenodd" d="M44.6104 5.32321C44.6104 7.22786 43.9417 8.83949 42.3179 9.71856C44.5149 10.3534 45.5179 12.3558 45.4701 14.7488C45.4701 18.7534 42.6999 20.3162 38.8313 20.3162H28.5626C27.4641 20.3162 27.082 19.9744 27.082 19.1441V1.66042C27.082 0.683676 27.6074 0.244141 28.9925 0.244141H37.3984C41.0761 0.244141 44.6104 0.879024 44.6104 5.32321ZM31.1895 3.4674H37.685C39.8343 3.4674 40.4552 4.29763 40.4552 6.05577C40.4552 7.76507 39.8343 8.64414 37.685 8.64414H31.1895V3.4674ZM38.4492 17.093H31.1895V13.4302C31.1895 12.2093 31.8582 11.6232 33.6253 11.6232H38.4492C40.7417 11.6232 41.4104 12.5511 41.4104 14.3581C41.4104 16.2139 40.7417 17.093 38.4492 17.093Z" fill="white"/>
<path fill-rule="evenodd" clip-rule="evenodd" d="M91.271 12.2581L95.665 19.9744C95.7606 20.072 95.7606 20.3162 95.4262 20.3162H91.7009C91.4254 20.3162 91.3265 20.1809 91.192 19.9969C91.1866 19.9895 91.1811 19.982 91.1755 19.9744L87.2113 12.6488H83.5815C81.8143 12.6488 81.1456 13.2348 81.1456 14.4558V20.3162H77.5635C77.2292 20.3162 77.0859 20.1697 77.0859 19.8279V1.66042C77.0859 0.683676 77.6113 0.244141 78.9964 0.244141H87.4024C92.274 0.244141 95.2352 1.56275 95.2352 6.44647C95.2352 10.2069 93.468 11.672 91.271 12.2581ZM81.1456 9.57205H87.9755C90.5546 9.57205 91.08 8.54647 91.08 6.4953C91.08 4.49298 90.5068 3.4674 87.9755 3.4674H81.1456V9.57205Z" fill="white"/>
</svg>
