<svg width="96" height="32" viewBox="0 0 96 32" fill="none" xmlns="http://www.w3.org/2000/svg">
<path d="M23.6251 11.1257H12.4334V14.4257H20.392C19.994 19.0757 16.1142 21.1257 12.4831 21.1257C7.8075 21.1257 3.72874 17.4257 3.72874 12.2757C3.72874 7.22571 7.60854 3.32571 12.4831 3.32571C16.2635 3.32571 18.4521 5.72571 18.4521 5.72571L20.7401 3.32571C20.7401 3.32571 17.7557 0.0257088 12.3339 0.0257088C5.41994 -0.0242912 0.0976562 5.82571 0.0976562 12.1757C0.0976562 18.3757 5.12149 24.4257 12.5329 24.4257C19.049 24.4257 23.8241 19.9757 23.8241 13.3257C23.8241 11.9257 23.6251 11.1257 23.6251 11.1257Z" fill="white"/>
<path fill-rule="evenodd" clip-rule="evenodd" d="M24.8672 16.4758C24.8672 12.2758 28.1501 8.67578 32.7263 8.67578C36.5066 8.67578 40.5853 11.3758 40.6351 16.5758C40.6351 21.1758 37.1532 24.4258 32.8257 24.4258C28.0506 24.4258 24.8672 20.7758 24.8672 16.4758ZM37.1532 16.5758C37.1532 13.6758 35.0143 11.8258 32.776 11.8258C30.2392 11.8258 28.2993 13.8258 28.3491 16.5258C28.3491 19.3258 30.2889 21.3258 32.776 21.3258C35.0641 21.3258 37.1532 19.4758 37.1532 16.5758Z" fill="white"/>
<path fill-rule="evenodd" clip-rule="evenodd" d="M41.9805 16.4758C41.9805 12.2758 45.2634 8.67578 49.8395 8.67578C53.6198 8.67578 57.6986 11.3758 57.7483 16.5758C57.7483 21.1758 54.2665 24.4258 49.939 24.4258C45.1639 24.4258 41.9805 20.7758 41.9805 16.4758ZM54.2665 16.5758C54.2665 13.6758 52.1276 11.8258 49.8893 11.8258C47.3525 11.8258 45.4126 13.8258 45.4623 16.5258C45.4623 19.3258 47.4022 21.3258 49.8893 21.3258C52.1774 21.3258 54.2665 19.4758 54.2665 16.5758Z" fill="white"/>
<path fill-rule="evenodd" clip-rule="evenodd" d="M59.0898 16.5756C59.0898 12.4256 62.3727 8.72559 66.6007 8.72559C68.4411 8.72559 69.8339 9.42559 70.7292 10.5256V9.17559H74.0121V23.3256C74.0121 28.8756 70.8287 31.5256 66.6505 31.5256C62.8204 31.5256 60.6816 29.1756 59.637 26.9256L62.6712 25.6756C63.1189 26.6756 64.3126 28.4756 66.7002 28.4756C69.1873 28.4756 70.8287 26.8256 70.8287 24.1256V22.5756C69.8836 23.6256 68.7396 24.4756 66.5012 24.4756C62.9199 24.4756 59.0898 21.2756 59.0898 16.5756ZM71.0774 16.6256C71.0774 13.6256 68.9385 11.8256 66.8992 11.8256C64.7106 11.8256 62.5717 13.5756 62.522 16.6756C62.522 19.5256 64.6111 21.3756 66.8494 21.3756C68.9883 21.3756 71.0774 19.7256 71.0774 16.6256Z" fill="white"/>
<path fill-rule="evenodd" clip-rule="evenodd" d="M81.4258 16.5258C81.4258 11.8258 84.7584 8.67578 88.7377 8.67578C91.8216 8.67578 94.1595 10.7758 95.204 13.1758L95.7512 14.4758L85.2558 18.8758C85.9025 20.0758 86.8973 21.2758 89.0859 21.2758C91.0258 21.2758 92.2196 20.2258 92.9159 19.1258L95.6517 20.9758C94.4579 22.5758 92.3688 24.4258 89.0859 24.4258C85.1564 24.4258 81.4258 21.4758 81.4258 16.5258ZM91.7719 13.4258C91.2745 12.4758 90.2797 11.7258 88.8372 11.7258C86.5988 11.7258 84.4102 14.0758 84.8082 16.3758L91.7719 13.4258Z" fill="white"/>
<path d="M76.4492 23.9754H79.8813V0.775391H76.4492V23.9754Z" fill="white"/>
</svg>
